<svg width="16" height="16" viewBox="0 0 16 16" fill="none" xmlns="http://www.w3.org/2000/svg">
<path d="M8 10.9883C8.51562 10.9883 9.00781 10.8594 9.47656 10.6016C9.92188 11.1172 10.1797 11.4102 10.25 11.4805C9.57031 11.9023 8.82031 12.1133 8 12.1133C7.20312 12.1133 6.46484 11.9023 5.78516 11.4805C6.06641 11.1055 6.3125 10.8125 6.52344 10.6016C6.96875 10.8594 7.46094 10.9883 8 10.9883ZM3.74609 12.2539C4.94141 13.4258 6.35938 14.0117 8 14.0117C9.64062 14.0117 11.0469 13.4258 12.2188 12.2539C13.4141 11.0586 14.0117 9.64062 14.0117 8C14.0117 6.35937 13.4141 4.95312 12.2188 3.78125C11.0469 2.58594 9.64062 1.98828 8 1.98828C6.35938 1.98828 4.94141 2.58594 3.74609 3.78125C2.57422 4.95312 1.98828 6.35937 1.98828 8C1.98828 9.64062 2.57422 11.0586 3.74609 12.2539ZM2.69141 2.72656C4.16797 1.25 5.9375 0.511719 8 0.511719C10.0625 0.511719 11.8203 1.25 13.2734 2.72656C14.75 4.17969 15.4883 5.9375 15.4883 8C15.4883 10.0625 14.75 11.832 13.2734 13.3086C11.8203 14.7617 10.0625 15.4883 8 15.4883C5.9375 15.4883 4.16797 14.7617 2.69141 13.3086C1.23828 11.832 0.511719 10.0625 0.511719 8C0.511719 5.9375 1.23828 4.17969 2.69141 2.72656ZM4.55469 6.94531C4.34375 6.71094 4.23828 6.44141 4.23828 6.13672C4.23828 5.83203 4.34375 5.57422 4.55469 5.36328C4.78906 5.12891 5.05859 5.01172 5.36328 5.01172C5.66797 5.01172 5.92578 5.12891 6.13672 5.36328C6.37109 5.57422 6.48828 5.83203 6.48828 6.13672C6.48828 6.44141 6.37109 6.71094 6.13672 6.94531C5.92578 7.15625 5.66797 7.26172 5.36328 7.26172C5.05859 7.26172 4.78906 7.15625 4.55469 6.94531ZM9.82812 6.94531C9.61719 6.71094 9.51172 6.44141 9.51172 6.13672C9.51172 5.83203 9.61719 5.57422 9.82812 5.36328C10.0625 5.12891 10.332 5.01172 10.6367 5.01172C10.9414 5.01172 11.1992 5.12891 11.4102 5.36328C11.6445 5.57422 11.7617 5.83203 11.7617 6.13672C11.7617 6.44141 11.6445 6.71094 11.4102 6.94531C11.1992 7.15625 10.9414 7.26172 10.6367 7.26172C10.332 7.26172 10.0625 7.15625 9.82812 6.94531Z" fill="black"/>
</svg>
