<svg width="15" height="14" viewBox="0 0 15 14" fill="none" xmlns="http://www.w3.org/2000/svg">
<path d="M11.4375 10.5938C12.375 9.59375 12.8438 8.39583 12.8438 7C12.8438 5.89583 12.5312 4.89583 11.9062 4C11.3021 3.10417 10.5 2.45833 9.5 2.0625V2.34375C9.5 2.69792 9.36458 3.01042 9.09375 3.28125C8.82292 3.53125 8.51042 3.65625 8.15625 3.65625H6.84375V5C6.84375 5.1875 6.77083 5.34375 6.625 5.46875C6.5 5.59375 6.34375 5.65625 6.15625 5.65625H4.84375V7H8.84375C9.03125 7 9.1875 7.0625 9.3125 7.1875C9.4375 7.3125 9.5 7.46875 9.5 7.65625V9.65625H10.1562C10.7812 9.65625 11.2083 9.96875 11.4375 10.5938ZM6.84375 12.2812V11C6.48958 11 6.17708 10.8646 5.90625 10.5938C5.63542 10.3229 5.5 10.0104 5.5 9.65625V9L2.3125 5.8125C2.20833 6.22917 2.15625 6.625 2.15625 7C2.15625 8.35417 2.60417 9.53125 3.5 10.5312C4.41667 11.5312 5.53125 12.1146 6.84375 12.2812ZM2.78125 2.3125C4.09375 1 5.66667 0.34375 7.5 0.34375C9.33333 0.34375 10.8958 1 12.1875 2.3125C13.5 3.60417 14.1562 5.16667 14.1562 7C14.1562 8.83333 13.5 10.4062 12.1875 11.7188C10.8958 13.0104 9.33333 13.6562 7.5 13.6562C5.66667 13.6562 4.09375 13.0104 2.78125 11.7188C1.48958 10.4062 0.84375 8.83333 0.84375 7C0.84375 5.16667 1.48958 3.60417 2.78125 2.3125Z" fill="black"/>
</svg>
