<svg width="80" height="52" viewBox="0 0 80 52" fill="none" xmlns="http://www.w3.org/2000/svg">
<path d="M12 14C12 12.8954 12.8954 12 14 12H40V40H14C12.8954 40 12 39.1046 12 38V14Z" fill="#AE7AFF"/>
<rect x="12" y="12" width="56" height="28" rx="2" stroke="black" stroke-linecap="square"/>
<path d="M52.6562 19.3438C54.5104 19.3438 56.0833 20 57.375 21.3125C58.6875 22.6042 59.3438 24.1667 59.3438 26C59.3438 27.8333 58.6875 29.4062 57.375 30.7188C56.0833 32.0104 54.5104 32.6562 52.6562 32.6562C51.4479 32.6562 50.3438 32.3646 49.3438 31.7812C50.3646 31.1979 51.1667 30.3958 51.75 29.375C52.3542 28.3333 52.6562 27.2083 52.6562 26C52.6562 24.7917 52.3542 23.6771 51.75 22.6562C51.1667 21.6146 50.3646 20.8021 49.3438 20.2188C50.3438 19.6354 51.4479 19.3438 52.6562 19.3438Z" fill="black"/>
<path d="M23.1562 28.8438C23.9479 29.6146 24.8958 30 26 30C27.1042 30 28.0417 29.6146 28.8125 28.8438C29.6042 28.0521 30 27.1042 30 26C30 24.8958 29.6042 23.9583 28.8125 23.1875C28.0417 22.3958 27.1042 22 26 22C24.8958 22 23.9479 22.3958 23.1562 23.1875C22.3854 23.9583 22 24.8958 22 26C22 27.1042 22.3854 28.0521 23.1562 28.8438ZM31.3438 28.2188V31.3438H28.2188L26 33.5312L23.7812 31.3438H20.6562V28.2188L18.4688 26L20.6562 23.7812V20.6562H23.7812L26 18.4688L28.2188 20.6562H31.3438V23.7812L33.5312 26L31.3438 28.2188Z" fill="black"/>
</svg>
